<svg xmlns="http://www.w3.org/2000/svg" width="1280" height="1280"><path d="M706.5 53.644c-1.65.19-7.95.832-14 1.428-70.585 6.95-141.921 34.173-201.255 76.801-33.118 23.793-65.262 55.415-90.417 88.948-10.381 13.839-22.947 33.427-22.384 34.894.283.737-.234 1.285-1.21 1.285-.973 0-.21.807 1.782 1.884 1.916 1.036 3.626 1.511 3.799 1.056.173-.455.992-.568 1.82-.25 1.163.446.863 1.022-1.315 2.529l-2.82 1.951 3.75-.63c2.812-.473 3.75-.289 3.75.737 0 .945 1.192 1.323 3.86 1.223 3.294-.123 3.789.126 3.377 1.701-.455 1.74-.555 1.747-1.752.11-1.073-1.468-1.516-1.53-2.877-.401-1.74 1.444-2.264 4.613-.592 3.58.559-.346.787-1 .506-1.454-.281-.455.125-1.07.901-1.368 1.709-.656 2.784 1.644 1.502 3.214-.505.619-.167.468.75-.335 1.47-1.288 1.834-1.259 3.07.246.772.939 1.118 1.145.77.457-.755-1.491.404-1.6 2.485-.235 1.303.855 1.31 1.107.052 1.916-1.14.733-.871 1.076 1.263 1.612 1.561.392 3.285.204 4.065-.444 1.025-.85 1.669-.745 2.648.434.711.857 1.906 1.323 2.655 1.035 1.101-.422 1.143-.094.218 1.705-.945 1.837-.914 2.008.177.977 1.84-1.74 4.267-1.592 3.573.218-.31.807-.133 1.734.393 2.059.526.325.956.039.956-.635s.286-.939.635-.59c.35.35-.13 1.805-1.066 3.234l-1.703 2.598 2.426-1.59c2.161-1.415 2.563-1.424 3.68-.078.69.832 1.702 1.236 2.248.898.624-.385.55-.888-.198-1.35-.79-.489-.456-.929.992-1.308 1.201-.314 1.918-.305 1.594.02-.325.324-.032 1.28.651 2.124 1.017 1.257.987 1.381-.164.687-.982-.591-1.177-.478-.648.377.415.672 1.37.986 2.122.698.752-.289 1.633-.094 1.958.432.325.526.088.956-.527.956s-.821.481-.458 1.068c.363.588 1.313.818 2.111.512.963-.37 1.201-.141.707.681-.499.831-.19.79.937-.124.925-.75 1.451-1.735 1.171-2.189-.281-.454.287-1.289 1.261-1.856.974-.567 1.438-1.045 1.031-1.062-.407-.016-.09-.818.706-1.78.795-.962 4.887-6.7 9.092-12.75 60.558-87.117 155.136-141.691 262.697-151.581 25.907-2.383 67.312-.353 94.597 4.636 85.001 15.544 165.244 64.867 217.43 133.647 72.932 96.125 92.776 221.165 53.051 334.298-5.005 14.252-14.228 35.687-19.784 45.977-4.012 7.431-4.164 7.973-1.997 7.141.89-.341 1.291-.173.941.393-.336.544.203 1.025 1.198 1.068 1.049.046 1.284.291.559.583-.687.278-1.25.944-1.25 1.48 0 .537.52.655 1.155.263.721-.446.882-.274.43.457-.897 1.452-2.585.524-2.585-1.421 0-.793-.408-1.441-.906-1.441-1.65 0 .086 3.922 2.005 4.531 2.303.731 4.176-.277 3.263-1.755-.391-.632-.208-.799.44-.398 1.304.805.467 3.622-1.076 3.622-.582 0-.77.289-.417.643.354.353 1.413.015 2.354-.75 1.487-1.211 1.635-1.187 1.125.176-.419 1.12.01 1.549 1.5 1.5 1.426-.047 2.28.723 2.696 2.431.477 1.96.743 2.148 1.234.872.344-.896.169-2.085-.39-2.644-.559-.559-.861-1.808-.672-2.778.324-1.657.433-1.652 1.844.086 1.127 1.389 1.157 1.641.12 1.017-.954-.575-1.237-.403-.916.558.254.764.95 1.389 1.546 1.389.596 0 1.392.309 1.769.686.378.378 1.791.266 3.141-.247 1.61-.612 2.242-.59 1.838.064-.339.548-1.264.997-2.057.997-.793 0-1.441.723-1.441 1.607 0 1.055.544 1.398 1.584.999 1.01-.388 1.424-.155 1.142.643-.243.688-1.18 1.189-2.084 1.112-.903-.076-1.642.314-1.642.867 0 .553.836.787 1.858.519 1.022-.267 2.573-.085 3.446.403 1.282.718 1.51.451 1.18-1.38-.373-2.078-.296-2.122.914-.52.727.963 1.89 1.75 2.585 1.75 1.015 0 1.015.298-.002 1.523-1.065 1.283-.988 1.417.493.849 1.458-.56 1.654-.266 1.151 1.727-.334 1.32-.348 1.839-.032 1.151.88-1.916 2.42-1.484 1.781.5-.459 1.427-.373 1.482.466.297.566-.799.891-2.599.724-4-.168-1.401-.106-1.984.138-1.297.245.688.888 1.25 1.43 1.25.542 0 .648.562.235 1.25-.54.899-.291.877.889-.079 1.458-1.182 1.585-1.027 1.146 1.395l-.494 2.724 2.669-1.749c1.468-.961 2.374-1.27 2.012-.685-.957 1.548 1.596 5.144 3.652 5.144.967 0 1.759.354 1.759.787 0 .433.91.856 2.022.94 1.233.093 1.758-.274 1.345-.942-.409-.662-.213-.808.495-.37 1.452.897.524 2.585-1.421 2.585-.793 0-1.441.45-1.441 1 0 1.26.647 1.259 3.005-.003 1.252-.67 2.079-.67 2.493 0 .341.552 1.041 1.003 1.555 1.003s4.723-7.644 9.355-16.987c51.706-104.317 58.179-224.143 17.953-332.372-33.597-90.397-94.318-163.42-178.267-214.385-13.877-8.424-47.201-24.703-63.594-31.066-35.648-13.835-74.486-22.985-113.38-26.711-13.783-1.32-59.546-1.877-68.62-.835M389.553 261.915a1.116 1.116 0 00.362 1.532c.521.322 1.21.159 1.532-.362a1.116 1.116 0 00-.362-1.532 1.116 1.116 0 00-1.532.362m6.447 6.144c0 .582.45.781 1 .441s1-.816 1-1.059-.45-.441-1-.441-1 .477-1 1.059m3.079.274c-.09 2.098 2.098 1.775 2.685-.395.321-1.189.223-1.202-.567-.075-.806 1.151-1.039 1.151-1.497 0-.365-.917-.568-.763-.621.47M401.5 273c-.34.55-.168 1 .382 1s1.278-.45 1.618-1c.34-.55.168-1-.382-1s-1.278.45-1.618 1m5.905 2.845c.392.635.181 1.155-.468 1.155-.832 0-.775.49.191 1.654.754.909 1.222 1.847 1.039 2.083-.184.236-.1.663.186.949.285.286.479-.893.43-2.619-.049-1.726-.54-3.417-1.091-3.757-.565-.35-.691-.117-.287.535m4.056 4.198c-1.519 1.678-1.56 1.932-.232 1.423.889-.341 1.862-1.261 2.162-2.043.747-1.947.248-1.787-1.93.62M419.5 279c-1.1.473-1.699.891-1.332.93.368.038 1.305.314 2.084.613.843.324 1.415-.08 1.415-1 0-.849-.038-1.511-.084-1.473-.045.039-.983.457-2.083.93m5.5 10c0 .55.477 1 1.059 1s.781-.45.441-1-.816-1-1.059-1-.441.45-.441 1m301.5 98.184c-10.496 1.144-25.204 6.274-34.64 12.082-9.422 5.798-20.824 16.599-26.314 24.926l-3.752 5.692 2.603 2.604c1.432 1.431 2.603 2.288 2.603 1.902 0-.385.872.089 1.937 1.053s2.384 1.476 2.931 1.139c.547-.338 1.319-.088 1.717.556.48.777.251.926-.68.442-.773-.4-.531-.02.536.846 1.068.866 2.755 1.574 3.75 1.574.995 0 1.809.45 1.809 1s.702 1 1.559 1 1.262.48.9 1.067c-.363.587-.052.983.691.881 2.608-.358 3.962.062 3.357 1.041-.338.547.024.745.812.442.786-.302 1.708.197 2.06 1.115.369.962 1.266 1.42 2.129 1.089.821-.315 1.492-.088 1.492.503 0 .592.698.808 1.552.48.854-.327 1.319-.218 1.034.243-.285.461.577 1.423 1.914 2.139 1.337.716 2.199 1.678 1.914 2.139-.285.461.254.542 1.198.18 1.087-.417 1.475-.268 1.058.406-.362.586.064 1.343.947 1.682 1.206.462 1.454.178.995-1.146-.335-.968.465-.466 1.778 1.116 1.523 1.835 2.847 2.595 3.654 2.096.778-.481 1.015-.378.616.268-.702 1.136 2.009 2.582 3.321 1.771.44-.272 1.519.602 2.397 1.942 1.038 1.584 2.3 2.301 3.609 2.048 1.266-.243 2.013.148 2.013 1.055 0 .794.884 1.443 1.965 1.443 1.08 0 2.453.913 3.05 2.028s1.432 1.814 1.856 1.552c.424-.262 2.237.416 4.03 1.506 1.886 1.147 2.995 1.441 2.633.698-.345-.706.124-.272 1.042.966.917 1.238 2.54 2.25 3.605 2.25s1.688.403 1.384.895c-.633 1.024 1.688 2.105 4.517 2.105 1.055 0 1.918.648 1.918 1.441s.52 1.762 1.155 2.154c.74.458.881.273.395-.514-.576-.932-.267-.921 1.281.045 1.122.701 1.82 1.629 1.552 2.063-.268.433.208.522 1.057.196.909-.349 1.796.066 2.159 1.011.338.882 1.043 1.604 1.567 1.604s.614-.562.201-1.25c-.599-.997-.441-.999.783-.009.844.683 1.789.987 2.101.675.311-.312.863.367 1.225 1.509.598 1.883 1.696 2.521 3.774 2.193.413-.065.75.332.75.882s.675 1 1.5 1 1.5.477 1.5 1.059.399.812.887.511c.487-.301 1.438.117 2.113.93.675.813 1.595 1.251 2.044.973.45-.278 1.105-.041 1.456.527.351.568 1.127.731 1.724.362.664-.411.796-.203.339.536-.484.784.338 1.616 2.346 2.374 1.7.641 3.091 1.518 3.091 1.947 0 .43.459.781 1.02.781.561 0 2.698 1.06 4.75 2.355 2.051 1.295 4.18 2.532 4.73 2.75.55.217.85.845.667 1.395-.184.55-.014.68.376.29.391-.391 1.946-.071 3.457.71 1.511.781 3.066 1.101 3.457.71.39-.39.56-.035.376.79-.205.923.34 1.447 1.417 1.361.962-.076 1.75.486 1.75 1.25s.477 1.389 1.059 1.389.773-.562.424-1.25c-.35-.687.243-.257 1.317.957 1.073 1.215 2.233 1.927 2.576 1.584.343-.343.624-.099.624.542 0 5.532 7.901-10.474 11.204-22.698 2.924-10.82 2.873-30.428-.108-41.635-2.513-9.447-7.398-20.12-12.904-28.191-4.527-6.636-15.414-17.379-22.517-22.22-15.859-10.808-38.015-16.104-58.175-13.905M261.211 497.538c-.751.851-.856 1.462-.25 1.462.571 0 1.039.408 1.039.906 0 .499-.913.668-2.029.376-5.481-1.433-42.45 40.052-63.811 71.605-59.755 88.265-84.251 197.352-67.58 300.951 19.993 124.247 90.856 229.089 199.326 294.902 13.659 8.288 45.104 23.76 61.094 30.061 37.396 14.736 75.94 23.907 117 27.836 20.464 1.958 66.741 1.393 86.22-1.053 68.092-8.551 129.1-31.14 184.762-68.41 85.132-57.004 145.936-142.771 172.478-243.293 1.944-7.359 3.535-13.771 3.537-14.248.002-.476-.897-.631-1.997-.343-2.793.73-2.492.041.75-1.718 1.521-.825 2.08-1.517 1.25-1.547-1.313-.049-1.317-.172-.029-.986.809-.512 1.179-1.222.822-1.58-.358-.357-1.457.294-2.444 1.446-.986 1.152-2.233 2.095-2.771 2.095-.538 0-.459-.519.175-1.153 1.311-1.311-.083-4.847-1.911-4.847-.769 0-.762.392.027 1.342.612.738.839 1.617.503 1.952-.859.859-3.618-2.088-2.956-3.157.807-1.306-7.505-2.16-9.682-.995-1.752.938-1.779.851-.41-1.319.954-1.511 1.178-3.022.641-4.323-.763-1.851-.83-1.86-.895-.133-.054 1.437-.587 1.728-2.32 1.263-1.238-.331-2.636-.609-3.107-.616-.471-.008-.603-.675-.294-1.482.31-.807.126-1.738-.409-2.069-.535-.331-.671-1.09-.302-1.687.381-.616.21-.8-.398-.424-.588.363-1.259.32-1.491-.096-.232-.416-.29-.208-.129.462.402 1.675-1.328 2.594-1.956 1.038-.458-1.137-1.077 1.627-.782 3.494.065.413-.277.75-.76.75-.482 0-.788-2.262-.679-5.026.125-3.161-.291-5.433-1.122-6.123-.961-.797-1.321-.79-1.321.027 0 .617.563 1.129 1.25 1.137.973.012.966.196-.034.83-.737.468-1.016 1.633-.656 2.735.515 1.573.434 1.649-.45.42-.594-.825-1.086-1.107-1.095-.628-.008.48-.685.317-1.504-.363-.819-.68-1.242-1.635-.941-2.122.301-.488-.154-.887-1.011-.887-.857 0-1.559-.436-1.559-.969 0-.532-.675-.709-1.5-.393-.901.346-1.5.007-1.5-.849 0-1.014-1.009-1.345-3.5-1.149-4.006.315-4.141.144-1.768-2.229 1.295-1.295 1.358-1.6.25-1.207-2.318.822-4.984-.997-4.35-2.969.381-1.188.275-1.347-.335-.503-.491.677-1.874 1.042-3.074.811-3.091-.595-3.665 1.034-1.017 2.889 1.231.862 1.779 1.568 1.217 1.568-.563 0-1.497-.474-2.076-1.053-.737-.737-1.564 1.588-2.757 7.75-14.186 73.244-52.862 142.461-107.899 193.1-58.549 53.87-131.237 85.863-211.946 93.284-16.356 1.504-60.26.628-75.097-1.499-67.555-9.684-125.659-34.513-177.446-75.826-15.097-12.044-39.415-36.073-51.483-50.871-68.747-84.301-95.745-194.069-73.638-299.385C211.114 658.123 251.955 588.886 311 537.984c8.463-7.296 10.635-9.682 9.683-10.634-.275-.276-.797.433-1.159 1.575-.822 2.591-1.727 2.613-4.003.099-.983-1.087-2.291-1.676-2.905-1.308-.614.367-.532-.053.183-.935.779-.962.915-1.84.34-2.195-1.328-.821-4.252.422-3.574 1.519.304.492.05.895-.565.895s-.8.563-.412 1.25c.562.995.433.997-.631.01-1.426-1.323-2.301-4.591-1.017-3.797.421.26 1.619-.165 2.663-.945 1.792-1.34 1.764-1.385-.503-.813-1.684.426-2.842.038-3.884-1.299-.965-1.238-1.302-1.366-.962-.364.288.848-.101 2.396-.865 3.441s-1.389 1.453-1.389.908.54-1.531 1.2-2.191c.898-.898.905-1.2.031-1.2-.698 0-.902-.704-.506-1.75.612-1.615.522-1.61-1.167.064-1.191 1.182-2.17 1.474-2.807.837-1.221-1.221-.114-3.151 1.808-3.151.793 0 1.441-.466 1.441-1.035 0-.702-.644-.691-2 .035-1.1.589-2.032.717-2.07.285-.039-.432-.457.115-.93 1.215-.808 1.881-.864 1.887-.93.11-.066-1.771-2.647-4.507-4.32-4.578-.413-.018-.75.718-.75 1.635 0 2.402-1.349.704-1.736-2.186-.264-1.973.015-2.322 1.454-1.815 1.421.501 1.539.366.583-.667-.977-1.058-1.651-.999-3.658.315-2.187 1.434-2.598 1.445-3.712.103-.688-.829-1.831-1.285-2.54-1.013-.852.326-1.079-.053-.67-1.119.412-1.074.228-1.372-.551-.89-.695.429-1.17.114-1.17-.777 0-.825-.52-1.821-1.155-2.213-.689-.426-.884-.276-.483.371 1.125 1.821-1.581 2.646-2.874.877-.665-.909-2.187-1.653-3.383-1.653-1.865 0-2.023-.285-1.105-2 .909-1.698.76-2-.984-2-1.723 0-1.947.428-1.389 2.649.468 1.865.325 2.44-.481 1.941-.63-.389-1.146-1.881-1.146-3.316 0-1.434-.273-2.334-.607-2.001-.945.946-3.2-1.612-2.661-3.018.628-1.636.082-1.535-1.521.283m2.789.355c0 .491.712 1.166 1.582 1.5 2.447.939 2.689.735 1.061-.893-1.7-1.7-2.643-1.917-2.643-.607m15.51 7.123c.346.559 1.047.758 1.559.441 1.387-.857 1.129-1.457-.628-1.457-.857 0-1.276.457-.931 1.016M271.5 507c-.34.55-.141 1 .441 1s1.059-.45 1.059-1-.198-1-.441-1-.719.45-1.059 1m25.5 7.333c0 .734.668 1.334 1.484 1.334 1.124 0 1.215-.324.378-1.334-.609-.733-1.277-1.333-1.484-1.333-.208 0-.378.6-.378 1.333m-4.447 4.582a1.116 1.116 0 00.362 1.532c.521.322 1.21.159 1.532-.362a1.116 1.116 0 00-.362-1.532 1.116 1.116 0 00-1.532.362M310.5 530c-.34.55-.141 1 .441 1s1.059-.45 1.059-1-.198-1-.441-1-.719.45-1.059 1M1047 649.059c0 .582.45.781 1 .441s1-.816 1-1.059-.45-.441-1-.441-1 .477-1 1.059m18 6.823c0 .55.45 1.278 1 1.618.55.34 1 .168 1-.382s-.45-1.278-1-1.618c-.55-.34-1-.168-1 .382m-6.5 1.118c.34.55.816 1 1.059 1s.441-.45.441-1-.477-1-1.059-1-.781.45-.441 1m34.007 9.989c-.35.566.051.734.941.393 1.732-.665 2.049-1.382.611-1.382-.518 0-1.216.445-1.552.989m-17 2c-.35.566.051.734.941.393 1.732-.665 2.049-1.382.611-1.382-.518 0-1.216.445-1.552.989m25.493 1.893c0 .55.45 1.278 1 1.618.55.34 1 .168 1-.382s-.45-1.278-1-1.618c-.55-.34-1-.168-1 .382m-9 2.5c0 .825.45 1.778 1 2.118.55.34 1-.057 1-.882s-.45-1.778-1-2.118c-.55-.34-1 .057-1 .882m7.559 2.523c-.301.487.189 1.168 1.09 1.514 2.155.827 2.469.375.803-1.159-.74-.682-1.592-.842-1.893-.355m-617.754 71.852c-11.083 11.48-18.62 25.202-22.471 40.914-2.226 9.082-2.214 28.394.024 37.658 7.833 32.426 31.869 56.676 64.11 64.683 7.771 1.93 10.841 2.165 23 1.767 12.43-.407 15.1-.822 23.383-3.634 26.763-9.086 46.976-29.353 54.996-55.145 3.253-10.463 3.583-13 1.687-13-.894 0-2.729-1.105-4.079-2.455-1.35-1.35-2.469-1.912-2.487-1.25-.019.714-.546.529-1.293-.454-.694-.912-2.142-1.812-3.219-2-2.573-.449-4.386-2.089-3.691-3.341.306-.55.204-.683-.225-.296-.43.387-2.356-.366-4.28-1.673-1.924-1.307-4.193-2.11-5.043-1.784-.968.372-1.292.183-.867-.505.388-.627-.292-1.399-1.585-1.801-1.246-.387-3.459-1.544-4.919-2.572-1.46-1.028-3.373-1.869-4.25-1.869-.878 0-1.596-.75-1.596-1.667 0-.916-.294-1.372-.653-1.013-.36.359-2.091-.235-3.847-1.32-1.756-1.085-3.487-1.679-3.847-1.32-.359.359-.653.105-.653-.564 0-.67-1.462-1.91-3.25-2.755-6.341-2.998-7.75-3.845-7.75-4.657 0-.452-.45-.544-1-.204-.55.34-1 .21-1-.289s-1.8-1.719-4-2.711c-2.2-.992-4-2.212-4-2.711 0-.499-.45-.629-1-.289s-1 .172-1-.374c0-.886-2.291-2.044-4.227-2.137-.4-.019-1.838-1.145-3.195-2.502-1.61-1.61-3.064-2.238-4.187-1.807-1.087.417-1.478.269-1.062-.403.372-.602-.425-1.335-1.836-1.689-1.371-.345-2.493-1.061-2.493-1.594 0-.532-1.687-1.663-3.75-2.513-2.062-.85-4.312-2.293-5-3.205-.782-1.038-1.25-1.19-1.25-.408 0 .687-.457.967-1.016.622-.559-.346-.751-1.058-.426-1.584.325-.525.22-.891-.234-.812-2.514.437-4.506-.377-6.693-2.736-1.515-1.634-3.052-2.41-4.028-2.036-.948.364-1.484.121-1.341-.608.131-.668-.625-1.216-1.68-1.218-1.055-.003-2.106-.568-2.335-1.256-.23-.689-.829-.998-1.332-.687-.503.311-.915.088-.915-.494s-.627-1.059-1.393-1.059-1.609-.564-1.874-1.254c-.265-.689-2.225-1.883-4.357-2.653-2.132-.771-4.424-2.119-5.094-2.997-.67-.878-1.233-1.228-1.25-.778-.018.45-1.382-.143-3.032-1.318-1.65-1.175-3.007-1.768-3.015-1.318-.009.45-.378.248-.82-.449-.57-.899-2.709.706-7.36 5.524m425.811 119.802c-.791 2.06.034 3.191 1.359 1.866.518-.518.573-1.538.123-2.267-.644-1.042-.962-.956-1.482.401m6.948 4.148c-.542 1.425-.428 1.54.56.56.684-.679.991-1.486.683-1.793-.308-.308-.867.247-1.243 1.233m-6.294 4.224c.08 1.062.482 1.722.894 1.468.412-.255.495-1.124.185-1.931-.781-2.036-1.252-1.834-1.079.463m18.063 5.525c0 .801.383 1.22.85.931.467-.289.591-.944.274-1.456-.808-1.308-1.124-1.161-1.124.525m4.167.544c-.34.55-.141 1 .441 1s1.059-.45 1.059-1-.198-1-.441-1-.719.45-1.059 1m-1.5 4.441c0 .793.408 1.693.907 2.001.498.309.671-.34.383-1.441-.611-2.335-1.29-2.63-1.29-.56m8.543 3.49c-.317.512-.193 1.167.274 1.456.467.289.85-.13.85-.931 0-1.686-.316-1.833-1.124-.525" fill="undefined" fill-rule="evenodd"/></svg>