<?xml version="1.0" encoding="UTF-8" standalone="no"?>
<!DOCTYPE svg PUBLIC "-//W3C//DTD SVG 1.1//EN" "http://www.w3.org/Graphics/SVG/1.1/DTD/svg11.dtd">
<svg width="100%" height="100%" viewBox="0 0 480 480" version="1.1" xmlns="http://www.w3.org/2000/svg" xmlns:xlink="http://www.w3.org/1999/xlink" xml:space="preserve" xmlns:serif="http://www.serif.com/" style="fill-rule:evenodd;clip-rule:evenodd;stroke-linejoin:round;stroke-miterlimit:1.41421;">
    <g>
        <g>
            <path id="tauri-t" d="M177.312,142.168l0,1.651l-22.252,0l0,49.458l-1.651,0l0,-49.458l-22.095,0l0,-1.651l45.998,0Z" style="fill:none;fill-rule:nonzero;stroke-width:3.07px;" stroke="#e5fcff"/>
            <path id="tauri-a" d="M202.867,141.539l22.802,51.738l-1.729,0l-21.152,-47.885l-22.173,47.885l-1.809,0l24.061,-51.738Z" style="fill:none;fill-rule:nonzero;stroke-width:3.07px;" stroke="#e5fcff"/>
            <path id="tauri-u" d="M261.131,192.373c2.359,-0.97 4.43,-2.398 6.212,-4.285c1.782,-1.835 3.145,-3.945 4.089,-6.33c0.943,-2.385 1.415,-4.862 1.415,-7.43l0,-32.16l-1.494,0l0,32.16c0,2.411 -0.445,4.691 -1.336,6.84c-0.892,2.15 -2.176,4.063 -3.853,5.74c-1.625,1.73 -3.512,3.041 -5.662,3.932c-2.149,0.891 -4.403,1.337 -6.762,1.337c-4.98,0 -9.173,-1.757 -12.581,-5.269c-1.625,-1.677 -2.87,-3.603 -3.734,-5.779c-0.865,-2.175 -1.298,-4.443 -1.298,-6.801l0,-32.16l-1.651,0l0,32.16c0,2.568 0.472,5.045 1.415,7.43c0.944,2.385 2.307,4.495 4.089,6.33c1.782,1.887 3.866,3.315 6.251,4.285c2.385,0.97 4.888,1.455 7.509,1.455c2.569,0 5.033,-0.485 7.391,-1.455Z" style="fill:none;fill-rule:nonzero;stroke-width:3.07px;" stroke="#e5fcff"/>
            <path id="tauri-r" d="M320.182,193.277l-20.05,-24.768l4.089,0c2.149,0 3.8,-0.131 4.953,-0.393c1.153,-0.262 2.438,-0.708 3.853,-1.337c1.992,-0.943 3.709,-2.385 5.15,-4.324c1.442,-1.94 2.163,-4.089 2.163,-6.448c0,-2.045 -0.616,-4.023 -1.848,-5.937c-1.232,-1.913 -2.988,-3.459 -5.268,-4.639c-2.281,-1.179 -4.915,-1.769 -7.903,-1.769l-16.04,0l0.157,49.615l-1.651,0l0,-51.109l17.534,0c3.303,0 6.212,0.668 8.728,2.005c2.516,1.337 4.456,3.067 5.819,5.19c1.363,2.123 2.044,4.337 2.044,6.644c0,2.726 -0.773,5.137 -2.319,7.234c-1.547,2.097 -3.499,3.774 -5.858,5.032c-1.468,0.734 -2.91,1.206 -4.325,1.415c-1.415,0.21 -3.355,0.315 -5.819,0.315l18.714,23.274l-2.123,0Z" style="fill:none;fill-rule:nonzero;stroke-width:3.07px;" stroke="#e5fcff"/>
            <rect id="tauri-i" x="336.144" y="142.168" width="1.651" height="51.109" style="fill:none;fill-rule:nonzero;stroke-width:3.07px;" stroke="#e5fcff"/>
            <path id="studio-s" d="M163.202,254.123c0.988,1.463 1.483,2.974 1.483,4.532c0,1.786 -0.59,3.43 -1.768,4.931c-1.178,1.502 -2.774,2.689 -4.789,3.563c-2.014,0.875 -4.199,1.312 -6.556,1.312c-2.28,0 -4.389,-0.399 -6.328,-1.198c-1.938,-0.798 -3.506,-1.9 -4.703,-3.306c-1.197,-1.406 -1.872,-2.946 -2.024,-4.618l1.14,-0.684c0,1.558 0.542,3.002 1.625,4.333c1.083,1.33 2.537,2.375 4.361,3.135c1.825,0.76 3.801,1.14 5.929,1.14c2.167,0 4.162,-0.389 5.986,-1.168c1.825,-0.779 3.269,-1.825 4.333,-3.136c1.064,-1.311 1.596,-2.746 1.596,-4.304c0,-1.33 -0.418,-2.604 -1.254,-3.82c-0.836,-1.216 -1.995,-2.242 -3.477,-3.078c-0.875,-0.494 -2.015,-0.874 -3.421,-1.14c-1.406,-0.266 -2.679,-0.456 -3.82,-0.571c-0.228,-0.038 -1.216,-0.199 -2.964,-0.484c-1.748,-0.285 -3.174,-0.675 -4.276,-1.169c-1.786,-0.836 -3.202,-1.995 -4.247,-3.477c-1.045,-1.483 -1.568,-3.041 -1.568,-4.675c0,-1.786 0.589,-3.43 1.767,-4.931c1.179,-1.502 2.775,-2.699 4.789,-3.592c2.015,-0.893 4.2,-1.34 6.556,-1.34c2.243,0 4.343,0.409 6.3,1.226c1.957,0.817 3.544,1.919 4.76,3.306c1.216,1.388 1.901,2.917 2.053,4.59l-1.198,0.627c0,-1.558 -0.532,-2.993 -1.596,-4.304c-1.064,-1.312 -2.508,-2.347 -4.333,-3.107c-1.824,-0.761 -3.819,-1.141 -5.986,-1.141c-2.166,0 -4.161,0.38 -5.986,1.141c-1.824,0.76 -3.268,1.805 -4.332,3.135c-1.065,1.33 -1.597,2.794 -1.597,4.39c0,1.406 0.456,2.755 1.369,4.048c0.912,1.292 2.166,2.299 3.762,3.021c0.684,0.304 1.463,0.551 2.338,0.741c0.874,0.19 1.757,0.352 2.651,0.485c0.893,0.133 1.51,0.237 1.852,0.313c1.787,0.266 3.269,0.513 4.447,0.741c1.178,0.228 2.242,0.59 3.193,1.084c1.634,0.836 2.945,1.985 3.933,3.449Z" style="fill:none;fill-rule:nonzero;stroke-width:1.17px;" stroke="#e5fcff"/>
            <path id="studio-t" d="M204.192,230.948l0,1.197l-16.134,0l0,35.86l-1.197,0l0,-35.86l-16.019,0l0,-1.197l33.35,0Z" style="fill:none;fill-rule:nonzero;stroke-width:1.17px;" stroke="#e5fcff"/>
            <path id="studio-u" d="M232.184,267.349c1.71,-0.703 3.211,-1.739 4.504,-3.107c1.292,-1.33 2.28,-2.86 2.964,-4.589c0.684,-1.73 1.026,-3.525 1.026,-5.388l0,-23.317l-1.083,0l0,23.317c0,1.748 -0.323,3.402 -0.969,4.96c-0.646,1.558 -1.577,2.946 -2.793,4.162c-1.179,1.254 -2.547,2.204 -4.105,2.85c-1.558,0.646 -3.193,0.969 -4.903,0.969c-3.611,0 -6.651,-1.273 -9.122,-3.819c-1.178,-1.216 -2.08,-2.613 -2.707,-4.19c-0.628,-1.578 -0.941,-3.222 -0.941,-4.932l0,-23.317l-1.197,0l0,23.317c0,1.863 0.342,3.658 1.026,5.388c0.684,1.729 1.672,3.259 2.964,4.589c1.293,1.368 2.803,2.404 4.533,3.107c1.729,0.703 3.544,1.055 5.444,1.055c1.862,0 3.649,-0.352 5.359,-1.055Z" style="fill:none;fill-rule:nonzero;stroke-width:1.17px;" stroke="#e5fcff"/>
            <path id="studio-d" d="M269.155,266.551c2.223,-0.969 4.19,-2.366 5.9,-4.19c1.52,-1.711 2.689,-3.678 3.506,-5.901c0.817,-2.223 1.226,-4.57 1.226,-7.041c0,-2.432 -0.409,-4.769 -1.226,-7.012c-0.817,-2.242 -1.986,-4.2 -3.506,-5.872c-3.382,-3.724 -7.772,-5.587 -13.169,-5.587l-10.376,0l0,37.057l10.376,0c2.622,0 5.045,-0.485 7.269,-1.454Zm-16.448,-34.406l9.179,0c2.508,0 4.798,0.438 6.87,1.312c2.071,0.874 3.867,2.166 5.387,3.876c1.444,1.559 2.556,3.383 3.335,5.473c0.779,2.091 1.169,4.295 1.169,6.613c0,2.319 -0.39,4.523 -1.169,6.613c-0.779,2.091 -1.891,3.934 -3.335,5.53c-1.482,1.711 -3.269,3.012 -5.359,3.906c-2.09,0.893 -4.39,1.339 -6.898,1.339l-9.179,0l0,-34.662Z" style="fill:none;fill-rule:nonzero;stroke-width:1.17px;" stroke="#e5fcff"/>
            <rect id="studio-i" x="289.479" y="230.948" width="1.197" height="37.056" style="fill:none;fill-rule:nonzero;stroke-width:1.17px;" stroke="#e5fcff" />
            <path id="studio-o" d="M328.445,265.838c2.869,-1.71 5.149,-4.019 6.841,-6.927c1.691,-2.907 2.537,-6.071 2.537,-9.492c0,-3.42 -0.846,-6.584 -2.537,-9.492c-1.692,-2.907 -3.972,-5.207 -6.841,-6.898c-2.87,-1.691 -5.996,-2.537 -9.378,-2.537c-3.383,0 -6.509,0.846 -9.379,2.537c-2.869,1.691 -5.149,3.991 -6.841,6.898c-1.691,2.908 -2.537,6.072 -2.537,9.492c0,3.421 0.846,6.585 2.537,9.492c1.692,2.908 3.972,5.217 6.841,6.927c2.87,1.71 5.996,2.566 9.379,2.566c3.382,0 6.508,-0.856 9.378,-2.566Zm-0.513,-31.811c2.717,1.596 4.864,3.753 6.442,6.47c1.577,2.718 2.366,5.692 2.366,8.922c0,3.231 -0.789,6.205 -2.366,8.922c-1.578,2.718 -3.725,4.875 -6.442,6.471c-2.718,1.596 -5.673,2.394 -8.865,2.394c-3.193,0 -6.129,-0.798 -8.808,-2.394c-2.68,-1.596 -4.808,-3.753 -6.386,-6.471c-1.577,-2.717 -2.365,-5.691 -2.365,-8.922c0,-3.23 0.788,-6.204 2.365,-8.922c1.578,-2.717 3.706,-4.874 6.386,-6.47c2.679,-1.596 5.615,-2.395 8.808,-2.395c3.192,0 6.147,0.799 8.865,2.395Z" style="fill:none;fill-rule:nonzero;stroke-width:1.17px;" stroke="#e5fcff"/>
        </g>
        <path id="line" d="M117.334,208.935l245.332,0" style="fill:none;stroke-width:3.07px;stroke-linecap:round;stroke-miterlimit:1.5;" stroke="#e5fcff"/>
    </g>
</svg>
