<svg width="100%" height="100%" viewBox="0 0 520 150" version="1.1" xmlns="http://www.w3.org/2000/svg" xmlns:xlink="http://www.w3.org/1999/xlink" xml:space="preserve" style="fill:#67D6ED;fill-rule:evenodd;clip-rule:evenodd;stroke-linejoin:round;stroke-miterlimit:2;">
    <g id="g920" transform="matrix(1,0,0,1,-638.338,-82.9627)">
        <path id="path910" d="M710.873,220.019C710.873,225.623 707.371,228.424 700.367,228.424C693.48,228.424 690.036,225.623 690.036,220.019L690.036,105.677L659.393,105.677C655.19,105.677 652.972,102.7 652.739,96.747C652.739,90.91 654.957,87.991 659.393,87.991L741.516,87.991C745.952,87.991 748.054,90.91 747.82,96.747C747.82,102.7 745.719,105.677 741.516,105.677L710.873,105.677L710.873,220.019Z" style="fill-rule:nonzero;"/>
        <path id="path912" d="M809.352,105.152L771.005,222.821L771.005,222.646C770.304,224.397 769.312,225.856 768.028,227.023C766.861,228.074 765.402,228.599 763.65,228.599C762.717,228.599 761.783,228.483 760.849,228.249C760.032,228.132 759.156,227.957 758.222,227.724L758.397,227.724C751.743,225.623 749.292,221.887 751.043,216.517L790.966,95.171C791.55,93.303 792.542,91.727 793.943,90.443C795.461,89.159 797.212,88.4 799.196,88.167C801.181,87.816 803.107,87.583 804.975,87.466C806.843,87.233 808.302,87.116 809.352,87.116C810.403,87.116 811.862,87.233 813.73,87.466C815.598,87.583 817.524,87.758 819.508,87.991C821.143,88.225 822.719,89.1 824.236,90.618C825.87,92.136 827.096,93.653 827.913,95.171C834.45,115.249 841.046,135.503 847.7,155.931C854.471,176.243 861.125,196.439 867.662,216.517C869.296,221.887 866.845,225.623 860.307,227.724C859.374,227.957 858.498,228.132 857.681,228.249C856.98,228.483 856.163,228.599 855.229,228.599C853.595,228.599 852.078,228.074 850.677,227.023C849.393,225.856 848.459,224.397 847.875,222.646L847.875,222.821L809.352,105.152Z" style="fill-rule:nonzero;"/>
        <path id="path914" d="M977.722,199.007C977.722,208.462 974.571,215.525 968.267,220.194C965.232,222.412 962.08,224.163 958.811,225.448C955.659,226.615 952.566,227.199 949.531,227.199L911.358,227.199C908.323,227.199 905.171,226.615 901.903,225.448C898.751,224.163 895.657,222.412 892.622,220.194C889.587,217.86 887.252,215 885.618,211.614C883.984,208.112 883.167,203.91 883.167,199.007L883.167,95.521C883.167,89.918 886.61,87.116 893.498,87.116C900.502,87.116 904.004,89.918 904.004,95.521L904.004,197.606C904.004,200.641 904.88,203.384 906.631,205.836C908.382,208.287 911.417,209.513 915.736,209.513L945.153,209.513C949.472,209.513 952.508,208.287 954.259,205.836C956.01,203.384 956.885,200.641 956.885,197.606L956.885,95.521C956.885,89.918 960.329,87.116 967.216,87.116C974.22,87.116 977.722,89.918 977.722,95.521L977.722,199.007Z" style="fill-rule:nonzero;"/>
        <path id="path916" d="M1053.96,169.414L1040.48,169.414C1038.5,169.414 1036.92,168.656 1035.75,167.138C1034.7,165.504 1034.18,163.344 1034.18,160.659C1034.18,154.706 1036.63,151.729 1041.53,151.729L1062.02,151.729C1066.34,151.729 1069.37,150.503 1071.12,148.052C1072.88,145.6 1073.75,142.915 1073.75,139.997L1073.75,117.409C1073.75,114.49 1072.88,111.805 1071.12,109.354C1069.37,106.903 1066.34,105.677 1062.02,105.677L1025.07,105.677L1025.07,219.844C1025.07,225.448 1021.63,228.249 1014.74,228.249C1007.85,228.249 1004.41,225.448 1004.41,219.844L1004.41,98.498C1004.41,94.295 1005.46,91.493 1007.56,90.093C1009.78,88.692 1012.41,87.991 1015.44,87.991L1066.4,87.991C1069.43,87.991 1072.58,88.633 1075.85,89.918C1079.12,91.202 1082.27,92.836 1085.31,94.82L1085.13,94.82C1088.17,97.038 1090.5,99.957 1092.14,103.576C1093.77,107.078 1094.59,111.163 1094.59,115.833L1094.59,141.398C1094.59,150.854 1091.44,157.916 1085.13,162.585C1083.85,163.519 1082.45,164.395 1080.93,165.212C1079.53,166.029 1078.07,166.846 1076.55,167.663L1104.57,213.891C1104.92,214.474 1105.27,215.233 1105.62,216.167C1105.97,217.101 1106.14,217.86 1106.14,218.443C1106.14,221.245 1104.16,223.93 1100.19,226.498L1100.19,226.323C1097.51,227.957 1095.23,228.774 1093.36,228.774C1090.68,228.774 1088.52,227.432 1086.88,224.747L1087.06,224.922L1053.96,169.414Z" style="fill-rule:nonzero;"/>
        <path id="path918" d="M1143.94,219.669C1143.94,225.272 1140.43,228.074 1133.43,228.074C1126.54,228.074 1123.1,225.272 1123.1,219.669L1123.1,95.521C1123.1,89.918 1126.54,87.116 1133.43,87.116C1140.43,87.116 1143.94,89.918 1143.94,95.521L1143.94,219.669Z" style="fill-rule:nonzero;"/>
    </g>
</svg>
