<?xml version="1.0" encoding="UTF-8" standalone="no"?>
<!DOCTYPE svg PUBLIC "-//W3C//DTD SVG 1.1//EN" "http://www.w3.org/Graphics/SVG/1.1/DTD/svg11.dtd">
<svg width="100%" height="100%" viewBox="0 0 240 80" version="1.1" xmlns="http://www.w3.org/2000/svg" xmlns:xlink="http://www.w3.org/1999/xlink" xml:space="preserve" xmlns:serif="http://www.serif.com/" style="fill-rule:evenodd;clip-rule:evenodd;stroke-linejoin:round;stroke-miterlimit:1.41421;">
    <g>
        <g>
            <path id="tauri-t"  d="M62.758,14.485l0,1.651l-22.253,0l0,49.458l-1.651,0l0,-49.458l-22.095,0l0,-1.651l45.999,0Z" style="fill:none;fill-rule:nonzero;stroke-width:3.07px;" stroke="#e5fcff"/>
            <path id="tauri-a"  d="M88.312,13.856l22.803,51.738l-1.73,0l-21.151,-47.886l-22.174,47.886l-1.809,0l24.061,-51.738Z" style="fill:none;fill-rule:nonzero;stroke-width:3.07px;" stroke="#e5fcff"/>
            <path id="tauri-u"  d="M146.577,64.69c2.359,-0.97 4.429,-2.398 6.212,-4.286c1.782,-1.834 3.145,-3.944 4.088,-6.329c0.944,-2.385 1.416,-4.862 1.416,-7.431l0,-32.159l-1.494,0l0,32.159c0,2.412 -0.446,4.692 -1.337,6.841c-0.891,2.149 -2.175,4.063 -3.853,5.74c-1.625,1.73 -3.512,3.04 -5.661,3.931c-2.149,0.892 -4.403,1.337 -6.762,1.337c-4.98,0 -9.174,-1.756 -12.581,-5.268c-1.625,-1.677 -2.87,-3.604 -3.735,-5.779c-0.865,-2.176 -1.297,-4.443 -1.297,-6.802l0,-32.159l-1.652,0l0,32.159c0,2.569 0.472,5.046 1.416,7.431c0.943,2.385 2.306,4.495 4.088,6.329c1.783,1.888 3.866,3.316 6.252,4.286c2.385,0.97 4.888,1.454 7.509,1.454c2.568,0 5.032,-0.484 7.391,-1.454Z" style="fill:none;fill-rule:nonzero;stroke-width:3.07px;" stroke="#e5fcff"/>
            <path id="tauri-r"  d="M205.628,65.594l-20.051,-24.768l4.089,0c2.149,0 3.8,-0.131 4.954,-0.394c1.153,-0.262 2.437,-0.707 3.853,-1.336c1.991,-0.944 3.708,-2.385 5.15,-4.325c1.441,-1.939 2.162,-4.089 2.162,-6.448c0,-2.044 -0.616,-4.023 -1.848,-5.936c-1.232,-1.913 -2.988,-3.46 -5.268,-4.639c-2.28,-1.18 -4.914,-1.769 -7.902,-1.769l-16.041,0l0.158,49.615l-1.652,0l0,-51.109l17.535,0c3.302,0 6.212,0.668 8.728,2.005c2.516,1.336 4.455,3.066 5.818,5.189c1.363,2.123 2.045,4.338 2.045,6.644c0,2.726 -0.773,5.138 -2.32,7.234c-1.546,2.097 -3.499,3.775 -5.858,5.033c-1.468,0.734 -2.909,1.205 -4.324,1.415c-1.416,0.21 -3.355,0.315 -5.819,0.315l18.714,23.274l-2.123,0Z" style="fill:none;fill-rule:nonzero;stroke-width:3.07px;" stroke="#e5fcff"/>
            <rect id="tauri-i"  x="221.59" y="14.485" width="1.651" height="51.109" style="fill:none;fill-rule:nonzero;stroke-width:3.07px;" stroke="#e5fcff"/>
        </g>
    </g>
</svg>
