<svg xmlns="http://www.w3.org/2000/svg" width="681" height="680"><path d="M251.377 192.765c-2.535 1.659-13.497 26.255-16.865 37.841-1.255 4.319-2.163 5.688-4.301 6.49-12.319 4.622-39.151 19.298-37.783 20.666.308.307 1.35-.143 2.316-1.001 4.174-3.709 33.443-17.761 36.995-17.761.498 0 .129 4.387-.819 9.75-5.833 32.988-1.628 68.804 11.728 99.896 1.974 4.595 3.986 8.354 4.471 8.354 1.235 0 1.259.079-2.534-8.245-6.588-14.456-11.504-33.088-13.655-51.755-1.965-17.056.018-46.552 3.989-59.347.539-1.734 2.384-7.653 4.101-13.153 1.717-5.5 5.538-15.062 8.492-21.25 2.953-6.187 5.284-11.243 5.179-11.235-.105.009-.696.346-1.314.75m128.135 21.849c-20.856 5.042-38.762 22.174-45.869 43.886-4.19 12.801-3.905 29.193.738 42.545 10.434 30.004 41.143 48.376 71.119 42.547 22.957-4.464 41.885-21.645 49.674-45.092 1.971-5.932 2.319-8.984 2.279-20-.041-11.4-.373-13.935-2.692-20.596-7.611-21.867-25.201-38.496-45.875-43.369-7.934-1.87-21.46-1.834-29.374.079m1.69 8.408c-14.102 3.695-25.227 11.799-33.295 24.255-5.606 8.656-8.028 16.597-8.609 28.223-.612 12.267 1.168 20.788 6.437 30.814 7.104 13.52 18.997 23.374 33.605 27.843 9.734 2.978 25.325 2.291 34.66-1.528 16.19-6.623 28.248-20.318 33.617-38.181 2.771-9.221 2.356-23.789-.97-34.026-6.219-19.139-22.367-33.923-41.473-37.973-8.882-1.882-15.174-1.732-23.972.573M480.5 423.655c-6.338 4.345-27.577 14.76-33.5 16.428-2.475.697-4.994 1.637-5.598 2.088-2.567 1.92-24.445 5.929-36.869 6.756-24.414 1.625-49.07-2.287-69.673-11.055-7.419-3.156-7.86-3.269-7.86-2.004 0 1.17 16.945 7.587 26.661 10.096 25.444 6.571 55.324 6.637 80.339.179 4.125-1.065 7.633-1.812 7.796-1.66.739.689-8.284 25.531-11.846 32.617-2.185 4.345-3.592 7.9-3.127 7.9 1.621 0 12.492-24.692 15.643-35.532 1.277-4.391 2.178-5.76 4.323-6.564 11.759-4.412 36.956-18.064 38.776-21.009 1.295-2.096-.197-1.578-5.065 1.76" fill="undefined" fill-rule="evenodd"/></svg>